<svg id="Capa_1" enable-background="new 0 0 512 512" height="512" viewBox="0 0 512 512" width="512" xmlns="http://www.w3.org/2000/svg" xmlns:xlink="http://www.w3.org/1999/xlink"><linearGradient id="lg1"><stop offset="0" stop-color="#560dff"/><stop offset="1" stop-color="#73ecff"/></linearGradient><linearGradient id="SVGID_1_" gradientUnits="userSpaceOnUse" x1="74.98" x2="437.019" xlink:href="#lg1" y1="437.019" y2="74.981"/><radialGradient id="SVGID_2_" cx="256" cy="256" gradientUnits="userSpaceOnUse" r="256"><stop offset="0" stop-color="#6b23ea"/><stop offset=".1366" stop-color="#6d35e9" stop-opacity=".863"/><stop offset=".4121" stop-color="#7366e6" stop-opacity=".588"/><stop offset=".7978" stop-color="#7bb2e1" stop-opacity=".202"/><stop offset="1" stop-color="#80ddde" stop-opacity="0"/></radialGradient><linearGradient id="SVGID_3_" gradientUnits="userSpaceOnUse" x1="25.665" x2="520.097" xlink:href="#lg1" y1="486.412" y2="-8.02"/><radialGradient id="SVGID_4_" cx="255.525" cy="256" gradientUnits="userSpaceOnUse" r="209.017"><stop offset="0" stop-color="#85ffe0"/><stop offset=".2169" stop-color="#6fe3e9" stop-opacity=".783"/><stop offset=".5548" stop-color="#51bef5" stop-opacity=".445"/><stop offset=".8278" stop-color="#3fa7fc" stop-opacity=".172"/><stop offset="1" stop-color="#389fff" stop-opacity="0"/></radialGradient><linearGradient id="SVGID_5_" gradientUnits="userSpaceOnUse" x1="-109.852" x2="457.806" xlink:href="#lg1" y1="621.993" y2="54.335"/><linearGradient id="lg2"><stop offset="0" stop-color="#85ffe0"/><stop offset=".146" stop-color="#8cffe2"/><stop offset=".3516" stop-color="#9effe6"/><stop offset=".5925" stop-color="#bcffee"/><stop offset=".8583" stop-color="#e6fff9"/><stop offset="1" stop-color="#fff"/></linearGradient><linearGradient id="SVGID_6_" gradientUnits="userSpaceOnUse" x1="20.709" x2="328.938" xlink:href="#lg2" y1="490.979" y2="182.751"/><linearGradient id="SVGID_7_" gradientUnits="userSpaceOnUse" x1="180.587" x2="323.034" xlink:href="#lg2" y1="331.651" y2="189.205"/><linearGradient id="SVGID_8_" gradientUnits="userSpaceOnUse" x1="297.113" x2="458.765" xlink:href="#lg2" y1="383.204" y2="221.552"/><linearGradient id="SVGID_9_" gradientUnits="userSpaceOnUse" x1="366.01" x2="492.905" xlink:href="#lg2" y1="314.305" y2="187.409"/><g><circle cx="256" cy="256" fill="url(#SVGID_1_)" r="256"/><circle cx="256" cy="256" fill="url(#SVGID_2_)" r="256"/><path d="m423.322 256c-.426 90.759-77.58 167.869-167.371 167.757-89.778-.794-167.811-77.904-168.223-167.757.412-89.852 78.445-166.963 168.222-167.757 89.792-.113 166.945 76.999 167.372 167.757z" fill="url(#SVGID_3_)"/><path d="m377.5 256c-.165 66.688-55.49 122.055-121.75 121.946-66.253-.37-122.042-55.738-122.2-121.946.157-66.209 55.948-121.576 122.2-121.946 66.26-.109 121.585 55.258 121.75 121.946z" fill="url(#SVGID_4_)"/><path d="m256 433.283c-94.365-.905-177.315-82.797-177.8-177.283.485-94.485 83.434-176.377 177.8-177.282 94.383-.106 176.348 81.786 176.85 177.282-.501 95.497-82.468 177.388-176.85 177.283zm-.079-339.194c-86.7.726-161.978 75.159-162.346 161.911.368 86.752 75.646 161.185 162.346 161.911 86.713.117 161.172-74.317 161.554-161.911-.383-87.594-74.841-162.027-161.554-161.911z" fill="url(#SVGID_5_)"/><path d="m346.75 256c-.07 50.128-41.179 91.283-91.099 91.203-49.916-.188-91.286-41.343-91.351-91.203.065-49.859 41.435-91.015 91.351-91.203 49.921-.078 91.03 41.075 91.099 91.203z" fill="url(#SVGID_6_)"/><path d="m270.912 316.475c-50.141-.078-91.37-41.069-91.167-91.048.039-8.491 1.269-16.714 3.52-24.525-11.85 15.356-18.968 34.428-18.965 55.098.065 49.859 41.435 91.014 91.351 91.203 41.495.093 76.789-28.344 87.696-66.631-16.736 21.749-42.99 35.915-72.435 35.903z" fill="url(#SVGID_7_)"/><path d="m424.392 209.515c-25.98-.268-46.879 20.589-46.892 46.485.014 25.895 20.911 46.753 46.892 46.485 25.972-.283 47.403-21.139 47.408-46.485-.006-25.346-21.436-46.202-47.408-46.485z" fill="url(#SVGID_8_)"/><path d="m439.991 272.119c-26.031.128-47.053-20.754-47.202-46.6-.008-1.424.058-2.832.175-4.224-9.498 8.501-15.464 20.901-15.464 34.705.014 25.895 20.911 46.753 46.892 46.485 24.54-.258 45.01-18.914 47.204-42.326-8.369 7.366-19.464 11.917-31.605 11.96z" fill="url(#SVGID_9_)"/></g></svg>