<svg width="164" height="164" viewBox="0 0 164 164" fill="none" xmlns="http://www.w3.org/2000/svg">
<path d="M128.166 91.8983C144.091 91.8983 157.55 78.3569 150.571 64.0433C149.105 61.0367 147.398 58.1373 145.458 55.3749C137.947 44.6769 127.32 36.5551 115.025 32.1161C102.73 27.6771 89.3653 27.1369 76.7522 30.569C64.1392 34.0012 52.8911 41.2388 44.5407 51.2956C36.1903 61.3524 31.1438 73.7393 30.0887 86.7684C29.0337 99.7974 32.0215 112.835 38.645 124.104C45.2685 135.374 55.2055 144.327 67.102 149.743C70.1738 151.142 73.3377 152.288 76.5626 153.176C91.9152 157.404 102.752 141.685 99.8243 126.032V126.032C96.5065 108.292 110.118 91.8983 128.166 91.8983V91.8983Z" fill="#5A5A5A"/>
<circle cx="106.153" cy="58.8475" r="12.7119" fill="#FAFAFA"/>
<path d="M70.5593 46.9078C70.5593 25.4196 51.622 7.19391 34.0359 19.5418V19.5418C23.3379 27.0532 15.2161 37.6805 10.7771 49.9753C9.75839 52.7968 8.94503 55.6746 8.33789 58.5868C4.56681 76.6745 19.8207 81.3663 34.0359 93.1695V93.1695C44.0927 101.52 52.4003 133.856 65.4293 134.911C78.4584 135.966 91.4958 132.979 102.765 126.355V126.355C118.469 117.125 107.15 97.6747 90.5475 90.1826C81.3426 86.0288 74.5958 80.6342 71.7993 75.1176C70.6622 72.8743 70.5593 70.2937 70.5593 67.7787L70.5593 46.9078Z" fill="#1E90FF"/>
<circle cx="37.5085" cy="58.8475" r="12.7119" transform="rotate(-90 37.5085 58.8475)" fill="#FAFAFA"/>
</svg>
