<svg id="Layer_4" enable-background="new 0 0 24 24" height="512" viewBox="0 0 24 24" width="512" xmlns="http://www.w3.org/2000/svg"><g fill="#90caf9"><path d="m12.75 17h-1.5-1.75c-.552 0-1 .448-1 1v5c0 .552.448 1 1 1h5c.552 0 1-.448 1-1v-5c0-.552-.448-1-1-1z"/><path d="m0 18v5c0 .552.448 1 1 1h5c.552 0 1-.448 1-1v-5c0-.552-.448-1-1-1h-5c-.552 0-1 .448-1 1z"/><path d="m18 24h5c.552 0 1-.448 1-1v-5c0-.552-.448-1-1-1h-5c-.552 0-1 .448-1 1v5c0 .552.448 1 1 1z"/><path d="m8.5 15.5h1.75c.552 0 1-.448 1-1v-5c0-.552-.448-1-1-1h-9.25c-.552 0-1 .448-1 1v5c0 .552.448 1 1 1h6z"/></g><path d="m20.5 17h-2.5c-.553 0-1 .448-1 1v5c0 .552.447 1 1 1h2.5z" fill="#7db0d9"/><path d="m12 17h-2.5c-.553 0-1 .448-1 1v5c0 .552.447 1 1 1h2.5z" fill="#7db0d9"/><path d="m3.5 17h-2.5c-.553 0-1 .448-1 1v5c0 .552.447 1 1 1h2.5z" fill="#7db0d9"/><path d="m23 0h-22c-.552 0-1 .448-1 1v5c0 .552.448 1 1 1h10.25 1.5 10.25c.552 0 1-.448 1-1v-5c0-.552-.448-1-1-1z" fill="#42a5f5"/><path d="m12 0h-11c-.553 0-1 .448-1 1v5c0 .552.447 1 1 1h11z" fill="#3990d5"/><path d="m12.75 14.5c0 .552.447 1 1 1h1.75 1.5 6c.553 0 1-.448 1-1v-5c0-.552-.447-1-1-1h-9.25c-.553 0-1 .448-1 1z" fill="#90caf9"/><path d="m18.375 8.5h-4.625c-.553 0-1 .448-1 1v5c0 .552.447 1 1 1h1.75 1.5 1.375z" fill="#7db0d9"/><path d="m5.625 8.5h-4.625c-.553 0-1 .448-1 1v5c0 .552.447 1 1 1h1.75 1.5 1.375z" fill="#7db0d9"/></svg>